# xmcd CD database file
#
# Track frame offsets:
#	150
#	21325
#	40250
#	61595
#	87920
#	103275
#	118537
#	133645
#	144387
#	160237
#	190825
#	213045
#	230487
#
# Disc length: 3320 seconds
#
# Revision: 0
# Processed by: cddbd v1.4PL0 Copyright (c) Steve Scherf et al.
# Submitted via: Feurio! 1.65 - http://www.feurio.com
#
DISCID=ac0cf60d
DTITLE=Reddog - After The Rain
DYEAR=1993
DGENRE=Blues
TTITLE0=Tear To My Eyes
TTITLE1=Spankin' The Plank
TTITLE2=She's Gone
TTITLE3=After The Rain
TTITLE4=Heartache And Pain
TTITLE5=Time Will Tell
TTITLE6=The Cry Of The Lonely
TTITLE7=A Few Too Many Times
TTITLE8=Don't Cry For Me
TTITLE9=Ain't Nobody
TTITLE10=Storm Warning
TTITLE11=I Won't Die
TTITLE12=Little Girl (That Lives Down The Lane)
EXTD=ARD Taxim Records TX 1008-2 1993
EXTT0=
EXTT1=
EXTT2=
EXTT3=
EXTT4=
EXTT5=
EXTT6=
EXTT7=
EXTT8=
EXTT9=
EXTT10=
EXTT11=
EXTT12=
PLAYORDER=
